<svg version="1" xmlns="http://www.w3.org/2000/svg" width="853.333" height="853.333" viewBox="0 0 640.000000 640.000000"><path d="M0 192v192h3.9c3.9 0 4-.1 4.4-3.8.2-2 .2-.2-.1 4l-.4 7.8h8.4l-.7-8c-.7-7.7-.6-8 1.4-8s2.1.5 2.1 8c0 6.4-.3 8-1.5 8s-1.5 1.3-1.5 5.5v5.5H8v13h8v32h13v4c0 2.9.4 4 1.5 4s1.5 1.1 1.5 4v4h-8v32h2.5c2.3 0 2.5.4 2.5 4 0 2.2-.4 4-1 4s-1 6-1 16 .4 16 1 16 1-6 1-16v-16h8v12c0 10 .3 12 1.5 12 1.1 0 1.5 1.1 1.5 4s.4 4 1.5 4c1.3 0 1.5-2.4 1.5-16 0-10 .4-16 1-16s1 7.3 1 20c0 17.1.2 20 1.5 20 .8 0 1.5.7 1.5 1.5 0 1.1 1.1 1.5 4 1.5h4v13h-8v32h24v16h-8v11h8v21h98.9l.4-2.2.4-2.3.2 2.2.1 2.3h39.5c30.1 0 39.5-.3 39.5-1.2 0-.9.3-.9 1.2 0 .9.9 45.5 1.2 194.5 1.2H640V0H0v192zm364 60.2c0 1.7-6.4 14-11.9 22.8-.8 1.4-2.4 4.2-3.5 6.3-1.9 4-10 11.1-14.6 12.9-12.7 5.1-18.3 6-23.5 3.6-1.4-.6-4.9-4.3-7.7-8.2l-5.1-7 1.2-7.1c.6-3.8 1.6-7.4 2.1-7.9.6-.6 1.9 1.1 3.4 4.5 2.9 6.6 5.2 9.7 6.2 8.6 1-1-1.2-11.6-3.1-15.4-1.3-2.4-1.3-3 0-4.3 1.4-1.3 2.1-1.2 6.4 1.3 6.4 3.6 10.5 3.5 6.9-.1-2-2 .2-3.1 9-4.7 5.7-1 9.3-2.2 11.6-4 2.7-2.1 4.4-2.5 9.8-2.5 4 0 7.2-.5 8.4-1.4 2.3-1.7 4.4-.4 4.4 2.6zm-73.5 56l10 .3.5 23c.3 12.6.9 23.6 1.3 24.2 1.4 2.2 4.7 1.5 5.7-1.3.6-1.4 1-12.3 1-24.3v-21.9l2.8-.4c1.5-.3 5.6-.2 9.2.1l6.5.6-.3 5.3c-.2 6 .6 6.3 4 1.3 4.1-6 7.1-7.6 15.6-7.9 5.9-.3 8.7.1 12.1 1.5 4.1 1.8 4.6 1.8 6 .4 1.4-1.4 4.2-1.5 20.6-1.1l19 .5.3 7.7c.3 7 .1 7.7-1.8 8.3-1.2.4-3.1.4-4.3.1-4.5-1.1-4.6-.3-4.9 24.9l-.3 23.9h-9l-9 .1-.5-24.4-.5-24.4-5.2-.1c-3.8-.2-5.3.2-5.3 1.1 0 1.7-.3 1.7-4.7-.7-4.1-2.2-9.8-2.7-10.8-.9-1.5 2.3.7 5.8 6.6 10.5 7.9 6.3 11.2 11.8 11.2 18.9 0 5.3-3.4 14.5-5.4 14.5-.5 0-.9.7-.9 1.6 0 .9.7 1.4 1.8 1.3 4.1-.7 14.1 6.9 16.7 12.6 3.2 7.1 3.9 11.4 3.8 22.5 0 9.2-.4 12.6-2.2 17-2.7 7.1-9 13.6-14.5 15.1-2.3.6-4.6 1.3-5.3 1.5-.8.2-1.3 2.9-1.5 7.1l-.3 6.8-4.8.3c-2.6.2-5 .9-5.3 1.5-.2.7-.3 9.6-.2 19.7l.3 18.5 2.2-4.1c5.5-10.2 18.8-7.2 19.4 4.4.4 6.9-5.9 11.8-12.8 10-3.2-.8-7.3-5-7.3-7.4 0-.8-.4-1.4-1-1.4-.5 0-1 1.8-1 4v4.1l-9.2-.3-9.3-.3-.3-24.2-.2-24.1-5.6-.4c-3.1-.1-5.8-.1-6 .1-.2.2-.4 11.4-.4 24.8v24.4l-9.2-.3-9.3-.3-.5-32-.5-32-6.7-.3-6.8-.3v-64.8l3.1-.8 3.1-.8-3.1-3.5c-1.7-1.9-3.4-5-3.7-6.8-.9-4.8-1.9-4.6-3.3.7-2.2 8.7-10.6 14-19.9 12.7-7.7-1-8.8-2.3-8.9-10.5-.1-3.9.2-7.3.7-7.6.5-.3 2.1.1 3.4 1 1.9 1.3 2.9 1.4 4.5.5 2-1 2.1-2 2.3-25.3l.3-24.2 3-.6c1.7-.3 5.7-.5 9-.3s10.5.5 16 .6zm-84.8 26c-.3.8-.6.5-.6-.6-.1-1.1.2-1.7.5-1.3.3.3.4 1.2.1 1.9zm-3.2 2.6c-.3.3-1.1 0-1.8-.7-.9-1-.8-1.1.6-.5 1 .3 1.5.9 1.2 1.2zM11 364c0 2.9-.4 4-1.5 4S8 366.9 8 364s.4-4 1.5-4 1.5 1.1 1.5 4zm411.6-1.6c.1 1 1.4 3.5 2.8 5.4l2.6 3.6-2.2 2.3c-1.9 2-1.9 2.3-.4 2.3.9 0 4.3-1.1 7.6-2.5s6.2-2.5 6.4-2.5c.3 0 1.2 1.3 2.1 2.9 1.3 2.6 1.9 16 1.4 31.1-.2 4.2 1.3 11.5 2.5 12.2.6.4 1.9.5 2.9.2.9-.3 1.7-.1 1.7.5s-.6 1.1-1.4 1.1c-.9 0-1.4 1.2-1.4 3.7-.1 6.7-.8 9.2-4.7 17.1-7.5 15.2-7.5 15.1-5.1 17.1 1.7 1.4 1.4 12.8-.3 17.4-.6 1.6-1.1 3.3-1.1 3.8 0 .6-1.3 3.7-3 7.1-1.6 3.3-3 6.5-3 7.1 0 .6-.6 1.8-1.4 2.6-1.4 1.6-4 6.1-8.9 15.1-1.3 2.5-3.2 7-4.3 10-1 3-2.3 5.8-2.8 6.2-.6.4-2.3-.4-3.9-1.8-2.2-1.9-3.3-2.2-4.7-1.4-1.4.8-2.2.6-3.2-.7-1.3-1.7-2.1-2.3-8-6.1-4.4-2.7-3.3-5.6 1.2-3.2 1.5.8 2.3.5 3.8-1.4 1-1.3 3.1-2.6 4.7-2.8 2.9-.3 4.9-2.8 2.3-2.8-.8 0-2.5-1.1-3.8-2.5l-2.4-2.5 3.2-3.3c1.8-1.8 3.2-4 3.2-4.9 0-2.1 3.8-10.6 5.2-11.4.6-.4.8-2.6.5-5.9-.5-5.2 1.1-12.4 3.5-15.2.5-.7.7-1.7.3-2.4-.4-.6-.3-1.4.2-1.8 1.9-1.2 7-9.7 7.7-12.6 1.9-8.4 2.5-10.3 3.9-13.6 1-2.1 1.5-5.8 1.4-9.2-.3-7.4-2.9-11.1-8.1-11.5-3.2-.3-3.9-.9-5.4-4-.9-2-2.8-5.3-4.3-7.2-1.5-1.9-3.4-5.5-4.2-8-.9-2.5-2.7-7.6-4.1-11.4-2.4-6.8-2.5-9.5-.2-9.7.6 0 4.9-2 9.6-4.3 9.2-4.7 11.2-5.1 11.6-2.2zm-219.9 1.8c-.3.8-.6.5-.6-.6-.1-1.1.2-1.7.5-1.3.3.3.4 1.2.1 1.9zm11.8-1.2c.4.6.1 1.7-.5 2.5-1.7 2-.2 3.8 2.8 3.2 1.4-.3 3.9.3 5.9 1.4 4.6 2.6 5.1 2.4 1.9-.8-1.5-1.4-2.5-3.1-2.3-3.7.5-1.7 4-1.8 6-.4 1.5 1.1 1.6 1.8.8 4.2-1.3 3.3-.7 4.6 2 4.6 2.1 0 2.5-2.1.9-5-.7-1.3-.6-2.1.3-2.9 1-.7 3.2-.3 8.3 1.7 3.8 1.5 7.5 3.1 8.3 3.6 1.8 1.2 1 6.8-2.1 13.6-1.4 3-3.4 8.2-4.4 11.5-1 3.3-2.8 7.4-4 9.1-1.1 1.8-2.7 4.6-3.4 6.3-1.4 3.4-3.4 4-4.4 1.4-.6-1.4-.9-1.2-2.2 1.2-.8 1.5-1.2 3.7-.8 4.7.3 1 .1 2.5-.6 3.3-1.6 1.9.4 2.9 3.1 1.4 2.1-1.1 2.1-1 1.5 2.7-.4 2.2-1.2 5.3-1.8 6.9-.8 2.5-.5 4.4 1.7 11 1.5 4.4 3.1 8.4 3.5 9 .5.5 1.1 2.8 1.5 5 .4 2.2 1.1 4.7 1.5 5.5.5.9 1.5 4.9 2.4 9 1.4 6.8 1.4 7.6-.1 9.2-1.4 1.6-1.4 2.1.2 6 2.1 5.4 4.1 10.1 6.6 15.4 1 2.3 1.9 5.3 1.9 6.7 0 1.4 1.1 3.9 2.5 5.5 1.4 1.7 2.5 3.6 2.5 4.4 0 .8.7 2.3 1.5 3.4.8 1 1.5 2.7 1.5 3.6 0 .9 1.2 2.6 2.6 3.7 3.3 2.6 12.5 2.9 18.3.5 3.1-1.2 4.4-1.3 6.1-.4 1.3.7 5.7 1.4 10 1.7 7.4.5 7.8.5 9-1.8 2.4-4.4 5-4.7 5-.5 0 5-10.8 11.4-16.8 9.9-1.7-.4-2.7 0-3.8 1.6-1.9 2.6-2.9 2.6-6.1.1-3.1-2.4-5.1-2.6-6-.5-.9 2.4 2.7 5.7 5.4 5 2-.5 2.6 0 3.9 3.2 2.8 7 3.8 8.4 13.4 18.6 13.4 14.2 18 20.3 18 23.8 0 3.3-1.3 3.7-3.5 1.1-5.2-6.3-17.1-18.2-18-18.2-.7 0-2-.9-3-2-2-2.2-4.5-2.7-4.5-.9 0 .7 3.3 4.7 7.4 9 4.1 4.2 8.2 9.1 9 10.8.9 1.7 2.7 4.7 4.1 6.7 2.9 4.3 3.1 5.2 1 6-1 .4-2.4-.5-3.8-2.2-3.2-4.2-21.4-22.1-24.3-24-4-2.7-4-.8.2 4.1 7.7 9 12.3 15 12.4 16.1 0 .5 1.3 2.3 2.9 3.8 2.8 2.7 3.2 5.6.7 5.6-.6 0-6.8-5.9-13.6-13.1-6.9-7.2-13.8-13.8-15.5-14.6-1.6-.9-3.3-2-3.6-2.5-.4-.6-1.5-.8-2.5-.5-1.7.4-1.7.5.3 1.2 2.5.8 5.3 4.8 11.2 16.5 2.4 4.7 4.8 9 5.3 9.7.5.7.7 1.7.3 2.3-1.1 1.8-3.5 1.1-4.4-1.3-.5-1.3-2.1-3.7-3.5-5.4-1.5-1.7-3.2-4.6-3.8-6.5-.6-1.8-2.6-5-4.5-7.1-1.8-2-3.4-4.5-3.4-5.5-.2-3.3-.4-3.8-2.7-6.7-3.2-4.2-9.2-14.5-9.2-16 0-.6-.9-2-2-3-2.2-1.9-5-7.1-5-9 0-.6-1.6-4.3-3.5-8.2-1.9-3.9-3.5-7.8-3.5-8.5 0-.8-.3-1.8-.7-2.2-1.2-1.2-4.3-10-4.3-12.2 0-1.2-.8-3.2-1.8-4.5-1-1.3-2.8-4.9-4.1-7.9-1.2-3-3.4-7.7-4.8-10.4-2.6-5.1-3.7-10.7-5.2-25.6-.6-5.5-.5-9.2.1-10.4.8-1.4.4-3.4-1.7-8-1.5-3.4-3.6-8-4.6-10.4-2.1-4.6-2.4-9.7-.9-15.2.5-1.9 1.7-6.9 2.8-11 2.4-9.1 3.7-20 2.5-20-.5 0-1.4.5-2 1.1-1.3 1.3-3.4.3-2.8-1.4.5-1.8 1.8-16.7 1.7-19.9-.2-4.3 2.5-9.8 4.8-9.8 1 0 2.2.5 2.5 1zm-11.8 16.7c-.3 1-.5.2-.5-1.7s.2-2.7.5-1.8c.2 1 .2 2.6 0 3.5zm47.3 14.5c0 .5-.4.8-1 .8-.5 0-1-1-1-2.3 0-1.8.2-1.9 1-.7.5.8 1 1.8 1 2.2zm-51.3 3.5c-.3 1-.5.2-.5-1.7s.2-2.7.5-1.8c.2 1 .2 2.6 0 3.5zM244 407c0 .5-.4 1-1 1-.5 0-1-.5-1-1 0-.6.5-1 1-1 .6 0 1 .4 1 1zm-1 3.4c0 .3-.4.8-1 1.1-.5.3-1 .1-1-.4 0-.6.5-1.1 1-1.1.6 0 1 .2 1 .4zm-47.8 9c-.6 4.8-1.2 4.6-1.2-.5 0-2.2.4-3.8.8-3.5.4.3.6 2.1.4 4zM27 424c0 6.4-.3 8-1.5 8s-1.5-1.6-1.5-8 .3-8 1.5-8 1.5 1.6 1.5 8zm168.5 7c.3.5.1 1-.4 1-.6 0-1.1-.5-1.1-1 0-.6.2-1 .4-1 .3 0 .8.4 1.1 1zm41.5 10.5c0 .8-.4 1.5-1 1.5-.5 0-1-.7-1-1.5s.5-1.5 1-1.5c.6 0 1 .7 1 1.5zm-42.3 5.7c-.3.7-.5.2-.5-1.2s.2-1.9.5-1.3c.2.7.2 1.9 0 2.5zm2 10c-.3.8-.6.5-.6-.6-.1-1.1.2-1.7.5-1.3.3.3.4 1.2.1 1.9zM203 472c0 .5-.2 1-.4 1-.3 0-.8-.5-1.1-1-.3-.6-.1-1 .4-1 .6 0 1.1.4 1.1 1zm.7 7.2c-.3.8-.6.5-.6-.6-.1-1.1.2-1.7.5-1.3.3.3.4 1.2.1 1.9zM43 484c0 2.9-.4 4-1.5 4s-1.5-1.1-1.5-4 .4-4 1.5-4 1.5 1.1 1.5 4zm167 8.1c0 .6-.4.7-1 .4-.5-.3-1-1.1-1-1.6 0-.6.5-.7 1-.4.6.3 1 1.1 1 1.6zm1.7 6.1c-.3.8-.6.5-.6-.6-.1-1.1.2-1.7.5-1.3.3.3.4 1.2.1 1.9zm3.8 4.7c-.6.5-2.5-1-2.5-2 0-.5.6-.4 1.4.3.8.7 1.2 1.5 1.1 1.7zm5 9.9c-.3.3-1.1 0-1.8-.7-.9-1-.8-1.1.6-.5 1 .3 1.5.9 1.2 1.2zm122.3 4.2c3 2.9 3.3 3 12.5 3 6.5 0 10.7.5 13.3 1.6 2.2.9 6.3 2.3 9.2 3 7 1.9 12.9 6.6 14.2 11.6.7 2.3 2.4 4.8 4.5 6.5 4.2 3.3 4.4 5.8 1 10.4-1.4 1.9-2.8 4.2-3.1 5.2-.4.9-2.2 2.4-4 3.3-1.9.9-3.4 2-3.4 2.5 0 1.2-7.3 7.9-12.3 11.2-2.3 1.6-5.5 4.1-7.2 5.6-3.1 2.9-13.6 9.1-15.4 9.1-2.5 0-.7-2.1 5.7-6.6 7.2-5.1 12.2-9.8 12.2-11.4 0-1.6-.7-1.2-7.7 4.5-3.8 3-8.4 6.2-10.3 7.1-1.9.9-6.1 2.9-9.2 4.4-3.2 1.5-6 2.5-6.3 2.2-1.3-1.3-.2-2.9 3.5-5.2 2.2-1.4 4-2.8 4-3.3 0-.4 3-2.7 6.8-5.2 8.9-5.9 13.9-10.2 12.9-11.1-.5-.5-2.5.1-4.5 1.3s-5.8 3.2-8.4 4.4c-2.7 1.3-4.8 2.6-4.8 3.1 0 .9-12.6 6.8-14.6 6.8-.8 0-1.4-.5-1.4-1 0-.6.4-1 .9-1s3.7-2.7 7.2-6c4-3.7 5.8-6 4.7-6-1.4 0-6.1 3.3-9.3 6.5-4.6 4.7-6.5 5.8-8 4.5-.8-.7-1.5-1.9-1.5-2.7 0-2.1 13.5-15.7 21.5-21.7 9.4-7.1 13.1-11.1 15.2-16.4 1.5-4.1 1.5-4.5 0-5.4-.9-.5-1.7-1.5-1.7-2.2 0-.9-1.6-1.3-5.3-1.2-6.3 0-11.1-2.4-14.4-7.4-4.5-6.6-1.9-9.5 3.5-4zm-124.4-.5c-.4.8-.8 1.5-1 1.5-.2 0-.4-.7-.4-1.5s.4-1.5 1-1.5c.5 0 .7.7.4 1.5zm187.4 11.4c3.5 3.3 3.4 5.1-.4 7.6-4.8 3.1-9.2-2.8-5.9-7.9 1-1.4 2-2.6 2.4-2.6.4 0 2.1 1.3 3.9 2.9zM212 533c0 .5-.5 1-1.1 1-.5 0-.7-.5-.4-1 .3-.6.8-1 1.1-1 .2 0 .4.4.4 1zm-6.5 10.9c-.3.6-1.4 1-2.3 1-1.5-.1-1.5-.2.1-.6.9-.2 1.7-.9 1.7-1.5s.3-.9.6-.5c.3.3.3 1-.1 1.6zm-4.8 10.3c-.3.8-.6.5-.6-.6-.1-1.1.2-1.7.5-1.3.3.3.4 1.2.1 1.9zm-5 5c.2-.6.9-.9 1.4-.6.6.3.2 1.2-.8 1.9-1.3 1-2 1-2.5.2-1.2-1.9-.9-3.4.3-1.7.8 1.1 1.2 1.2 1.6.2zm-2.1 6.5c-1 1-1.9-.5-1-1.8.6-1.1.8-1.1 1.2 0 .2.7.1 1.5-.2 1.8zm-1.9 4.5c-.3.8-.6.5-.6-.6-.1-1.1.2-1.7.5-1.3.3.3.4 1.2.1 1.9zm.3 2.7c0 .5-.7 1.1-1.5 1.5-1.5.5-2-.5-.8-1.7.9-1 2.3-.9 2.3.2zm-2.3 5.3c-.3.8-.6.5-.6-.6-.1-1.1.2-1.7.5-1.3.3.3.4 1.2.1 1.9zm-2.7 6.7c-1.2 2.4-3.2 2.9-2.4.6.4-.8 1-1.5 1.5-1.5s.9-.8 1-1.8c0-.9.3-1.2.5-.5.3.7 0 2.1-.6 3.2zm-6.8 15.3c-1.1 1.1-3.2.3-3.2-1.4 0-.7.6-.6 1.5.2 1.2 1 1.5.9 1.6-.6 0-1.2.2-1.4.6-.6.3.8.1 1.8-.5 2.4zm119.2.4c.3.8.2 1.2-.4.9-.6-.3-1-1-1-1.6 0-1.4.7-1.1 1.4.7zm-120.7 7.1c-.3 1-.5.2-.5-1.7s.2-2.7.5-1.8c.2 1 .2 2.6 0 3.5zm109.8-1.7c.3.5.1 1-.4 1-.6 0-1.1-.5-1.1-1 0-.6.2-1 .4-1 .3 0 .8.4 1.1 1zm14.9.5c.3.8.1 1.5-.4 1.5-.6 0-1-.7-1-1.5s.2-1.5.4-1.5.6.7 1 1.5zM83 612c0 2.9-.4 4-1.5 4s-1.5-1.1-1.5-4 .4-4 1.5-4 1.5 1.1 1.5 4zm271-1.6c0 .3-.4.8-1 1.1-.5.3-1 .1-1-.4 0-.6.5-1.1 1-1.1.6 0 1 .2 1 .4zm-176 3c0 .8-.4 1.8-1 2.1-.5.3-1-.3-1-1.4 0-1.2.5-2.1 1-2.1.6 0 1 .6 1 1.4zm-2.4 9.3c-1 1-1.9-.5-1-1.8.6-1.1.8-1.1 1.2 0 .2.7.1 1.5-.2 1.8zm-1.6 5.5c0 1.6-.3 1.9-1.1 1.1-.6-.6-.8-1.6-.5-2.2 1.1-1.7 1.6-1.3 1.6 1.1z"/><path d="M327.8 342.5l.3 10.5 4.9 2.5c7.7 3.9 13 3.1 13-2.1 0-1.5-2.2-4.2-6.4-8.1-3.5-3.2-7.4-7.5-8.6-9.6-1.2-2-2.5-3.7-2.8-3.7-.4 0-.6 4.7-.4 10.5zM326.8 360.6c-.5.4-.8 1.5-.8 2.4 0 2-7.8 10-9.7 10-.7 0-1.3.4-1.3 1 0 .5.5 1 1.2 1 2.2 0 7.8 5.1 10.2 9.3 1.3 2.3 3 6.7 3.7 9.7 1 4.1 1.4 4.9 1.7 3 .9-6.5 3.6-13.1 6.7-16.8 1.9-2.2 3.5-4.2 3.5-4.5 0-.3-1.5-.9-3.2-1.2-1.8-.4-5-1.6-7-2.6-3.4-1.8-3.7-2.2-4-7-.2-2.8-.6-4.7-1-4.3zM353.3 389.6c-1.5 2.3-1.8 4.9-1.8 15 0 10.9.2 12.6 2.1 15.1 2.7 3.5 4.1 3.5 6.8 0 1.9-2.5 2.1-4.2 2.1-14.5 0-8.3-.5-12.6-1.5-14.7-2-4.1-5.3-4.4-7.7-.9zM304 406c0 16.9.5 18.4 4.4 14.1 5.3-5.9 3-30.1-2.9-30.1-1.3 0-1.5 2.6-1.5 16zM330.7 412c-.3.8-.8 3.3-1.2 5.5-.4 2.1-1.5 5.5-2.5 7.5-1.9 3.7-8.2 10-10 10-1.4 0-1.3 2.7.1 3.6.6.3 1.6.1 2.2-.5.7-.7 5.6-1.1 12.9-1.1 6.5 0 11.8-.2 11.8-.5 0-.2-1.5-1.9-3.4-3.7-4.3-4.2-5.3-6.3-7.5-15.1-1-3.9-2.1-6.5-2.4-5.7zM317.3 442.6c-.3.8-.1 2 .6 2.7.8.8 1.1.4 1.1-1.6 0-3-.7-3.5-1.7-1.1zM317 449.5c0 1.4.4 2.5.9 2.5s.9-1.1.9-2.5-.4-2.5-.9-2.5-.9 1.1-.9 2.5zM266 572c0 .5.5 1 1 1 .6 0 1-.5 1-1 0-.6-.4-1-1-1-.5 0-1 .4-1 1zM366.5 532c.3.5 1.1 1 1.6 1 .6 0 .7-.5.4-1-.3-.6-1.1-1-1.6-1-.6 0-.7.4-.4 1zM355.5 557c-.3.5-.2 1 .4 1 .5 0 1.3-.5 1.6-1 .3-.6.2-1-.4-1-.5 0-1.3.4-1.6 1zM348.5 562c-.3.5-.2 1 .4 1 .5 0 1.3-.5 1.6-1 .3-.6.2-1-.4-1-.5 0-1.3.4-1.6 1zM345.5 564c-.3.5-.1 1 .4 1 .6 0 1.1-.5 1.1-1 0-.6-.2-1-.4-1-.3 0-.8.4-1.1 1zM401.5 528.9c-.3.5-.1 1.2.5 1.6 1.2.7 3-.2 3-1.6 0-1.2-2.7-1.2-3.5 0zM53 636c0 2.9.4 4 1.5 4s1.5-1.1 1.5-4-.4-4-1.5-4-1.5 1.1-1.5 4z"/></svg>